<?xml version="1.0" encoding="iso-8859-1"?>
<!-- Generator: Adobe Illustrator 19.0.0, SVG Export Plug-In . SVG Version: 6.00 Build 0)  -->
<!-- License: CC0. Made by SVG Repo: https://www.svgrepo.com/svg/277464/poster -->
<svg version="1.1" id="Layer_1" xmlns="http://www.w3.org/2000/svg" xmlns:xlink="http://www.w3.org/1999/xlink" x="0px" y="0px"
	 viewBox="0 0 511.884 511.884" style="enable-background:new 0 0 511.884 511.884;" xml:space="preserve">
<rect y="21.322" style="fill:#FC6E51;" width="511.88" height="469.24"/>
<path style="fill:#E9573F;" d="M42.654,490.558h53.332h21.323h53.316l0,0h21.331h53.324h21.331h53.315h21.34h53.3h21.339h53.301
	h21.338h21.34v-21.339h-21.34v-42.646h21.34v-21.339h-21.34h-21.338h-53.301v-42.646h53.301h21.338h21.34v-21.339h-21.34v-42.646
	h21.34v-21.339h-21.34h-21.338h-53.301v-42.646h53.301h21.338h21.34v-21.339h-21.34v-42.646h21.34v-21.339h-21.34h-21.338h-53.301
	v-42.646h53.301h21.338h21.34V85.307h-21.34V42.661h21.34V21.322h-21.34h-21.338h-53.301h-21.339h-53.3h-21.34h-53.315H245.28
	h-53.324h-21.331l0,0h-53.316H95.985H42.654H21.331H0v21.339h21.331v42.646H0v21.339h21.331h21.323h53.332v42.646H42.654H21.331H0
	v21.339h21.331v42.646H0v21.339h21.331h21.323h53.332v42.646H42.654H21.331H0v21.339h21.331v42.646H0v21.339h21.331h21.323h53.332
	v42.646H42.654H21.331H0v21.339h21.331v42.646H0v21.339h21.331h21.323V490.558z M170.625,405.234L170.625,405.234h-53.316v-42.646
	h53.316l0,0h21.331h53.324v42.646h-53.324H170.625z M266.61,277.263v-42.646h53.315h21.34h53.3v42.646h-53.3h-21.34H266.61z
	 M319.925,298.602v42.646H266.61h-21.331h-53.324v-42.646h53.324h21.331H319.925z M319.925,213.278H266.61h-21.331h-53.324v-42.646
	h53.324h21.331h53.315V213.278z M245.279,234.617v42.646h-53.324h-21.331l0,0h-53.316v-42.646h53.316l0,0h21.331H245.279z
	 M319.925,469.219H266.61h-21.331h-53.324v-42.646h53.324h21.331h53.315V469.219z M319.925,405.234H266.61v-42.646h53.315h21.34
	h53.3v42.646h-53.3H319.925z M469.205,426.573v42.646h-53.301h-21.339h-53.3v-42.646h53.3h21.339H469.205z M469.205,298.602v42.646
	h-53.301h-21.339h-53.3v-42.646h53.3h21.339H469.205z M469.205,170.631v42.646h-53.301h-21.339h-53.3v-42.646h53.3h21.339H469.205z
	 M341.265,42.661h53.3h21.339h53.301v42.646h-53.301h-21.339h-53.3V42.661z M341.265,106.646h53.3v42.646h-53.3h-21.34H266.61
	v-42.646h53.315C319.925,106.646,341.265,106.646,341.265,106.646z M191.955,42.661h53.324h21.331h53.315v42.646H266.61h-21.331
	h-53.324V42.661z M170.625,106.646h21.331h53.324v42.646h-53.324h-21.331l0,0h-53.316v-42.646L170.625,106.646L170.625,106.646z
	 M42.654,85.307V42.661h53.332h21.323h53.316v42.646h-53.316H95.985C95.985,85.307,42.654,85.307,42.654,85.307z M42.654,213.278
	v-42.646h53.332h21.323h53.316v42.646h-53.316H95.985H42.654z M42.654,341.249v-42.646h53.332h21.323h53.316v42.646h-53.316H95.985
	H42.654z M42.654,426.573h53.332h21.323h53.316v42.646h-53.316H95.985H42.654V426.573z"/>
<path style="fill:#F5F7FA;" d="M339.421,63.984h-8.842H95.978v383.912h319.926V149.293v-8.826l-6.248-6.248L345.67,70.234
	L339.421,63.984L339.421,63.984z"/>
<polygon style="fill:#E9573F;" points="149.286,277.263 202.352,191.955 255.418,277.263 "/>
<polygon style="fill:#FC6E51;" points="213.091,277.263 287.824,149.293 362.556,277.263 "/>
<g>
	<path style="fill:#434A54;" d="M287.933,383.911h-85.316c-5.889,0-10.662-4.78-10.662-10.67c0-5.889,4.772-10.653,10.662-10.653
		h85.316c5.89,0,10.654,4.765,10.654,10.653C298.587,379.13,293.823,383.911,287.933,383.911z"/>
	<path style="fill:#434A54;" d="M330.58,341.249H159.963c-5.89,0-10.662-4.765-10.662-10.654c0-5.889,4.772-10.669,10.662-10.669
		H330.58c5.905,0,10.686,4.78,10.686,10.669C341.265,336.484,336.485,341.249,330.58,341.249z"/>
</g>
<polygon style="fill:#CCD1D9;" points="339.421,63.984 339.421,140.466 415.904,140.466 "/>
</svg>
